<svg id="SvgjsSvg1001" width="288" height="288" xmlns="http://www.w3.org/2000/svg" version="1.1" xmlns:xlink="http://www.w3.org/1999/xlink" xmlns:svgjs="http://svgjs.com/svgjs"><defs id="SvgjsDefs1002"></defs><g id="SvgjsG1008" transform="matrix(0.9167,0,0,0.9167,12.005987461853039,11.998277110147484)"><svg xmlns="http://www.w3.org/2000/svg" enable-background="new 0 0 50 50" viewBox="0 0 50 50" width="288" height="288"><path d="M28.5,26.6c-0.3-0.1-0.6-0.1-0.8-0.2c-0.1,0.3-0.2,0.7-0.3,1.1C27.7,27.2,28.1,26.9,28.5,26.6z" fill="#888bf4" class="color000 svgShape"></path><path d="M23.2 36.8c.1-3.3 1.4-6.2 3.4-8.4 0-.2 0-.4 0-.5 0-.5 0-.9.1-1.4-.8.1-1.5.3-2.4.5.3-.5.8-.8 1.3-1.1.5-.3 1.1-.4 1.7-.4.6 0 1.2.2 1.7.5 0 0 .1.1.2.1 2.2-1.5 4.9-2.4 7.7-2.4.2 0 .4 0 .6 0 0 0 .1 0 .1 0 0 0 0-.1.1-.1.5-1.6.2-3.4-.6-4.7-.2-.2-.3-.5-.5-.7-.9.8-1.9 1.4-3 1.8-.7.3-1.4.5-2.2.5-.8 0-1.6-.1-2.2-.6.7.2 1.4 0 2.1-.1.7-.2 1.3-.4 1.9-.7 1-.4 2-.8 3.1-1.3 0 0 0 0 0 0-.1-.1-.1-.3-.1-.4 0 0 0 0 0 0 0-.1 0-.2 0-.3 0-.7 1.2-2.6.3-5.2-.5-1.2-1.3-2.3-2.2-3.3-.2-.2-.4-.5-.6-.7-.8.6-1.6 1.1-2.3 1.7-.5.4-1 .8-1.3 1.3-.4.5-.7 1-1 1.7-.1-.7 0-1.4.3-2.1.3-.7.8-1.2 1.4-1.6.6-.5 1.2-.8 1.8-1 .3-.1.5-.2.8-.3-.4-.5-1-1.2-1.6-2-.6-.8-1.2-1.6-2.1-2.1 0 0 0 0 0 0 0 0-.1 0-.1 0-1.8-.9-3.8-.3-5.7-1-.7-.3-1.2-.7-1.8-1-.5-.2-.9-.3-1.4-.4v7.2c.3 0 .6 0 .8 0 .5 0 1-.2 1.4-.4.5-.2.9-.5 1.3-.9.4-.4.7-.8 1.1-1.2C25 6.1 24.7 6.6 24.4 7c-.4.4-.8.8-1.2 1.1-.5.3-1 .6-1.6.7C21.3 8.9 21 9 20.6 9v8.8c.1 0 .2-.1.3-.2.5-.3 1-.5 1.5-.6.5-.1 1.1-.1 1.6 0 .5.2.9.5 1.3.9-.4-.3-.8-.6-1.3-.6-.5 0-1 0-1.4.2-.4.2-.9.4-1.2.7-.2.2-.5.4-.7.6V39c.5.6 1.2 1.1 1.9 1.3.3.1.7.2 1 .2C23.3 39.3 23.2 38.1 23.2 36.8zM15.4 2.3c-1.9.7-4 .1-5.8 1C8.6 3.9 8 4.9 7.2 5.8 6.6 6.5 6.2 7 6 7.3 7.4 8 8.9 9.1 9.7 10.5c.3.6.5 1.3.6 2-.3-2-2.1-3.3-3.9-4.1C6.1 8.2 5.7 8.1 5.4 8c-1 1.2-2.1 2.4-2.6 3.9-.2.6-.3 1.2-.4 1.9 0 .7.1 1.5.3 2.2C2.9 16.3 3 16.7 3 17.1c0 .2 0 .3-.1.5.9.7 1.9 1.2 3 1.7.7.3 1.4.6 2 .7.7.1 1.4.2 2.1-.1-.6.4-1.4.5-2.1.4-.3 0-.6-.1-.9-.1-.4-.1-.9-.2-1.3-.3-1.1-.4-2.2-.8-3.2-1.4-.1.2-.2.3-.3.5-.9 1.5-1.1 3.2-.6 4.7.9 3 1.3 1.5 1.6 5.6 0 .2 0 .5.1.7.2 1.6 1 3 2.1 4.1 1 1 2.4 1.6 3.4 2.5.7.7 1.3 1.5 2.1 2.1.5.4 1 .7 1.6.9.8.7 1.8 1.1 2.9 1.1.5 0 1-.1 1.4-.3.6-.2 1.1-.5 1.6-.9.1-.1.1-.1.2-.2.1-.1.1-.1.2-.2V18.8c-.2-.2-.4-.4-.7-.6-.4-.3-.8-.5-1.2-.7-.4-.2-.9-.3-1.4-.2-.5.1-.9.3-1.3.6.3-.4.8-.7 1.3-.9.5-.2 1.1-.1 1.6 0 .5.1 1 .3 1.5.6.1 0 .2.1.3.2V9c-.3 0-.6-.1-.9-.1-.6-.1-1.1-.4-1.6-.7-.5-.3-.9-.7-1.2-1.1-.4-.4-.6-.9-.9-1.4.3.4.7.8 1.1 1.2.4.3.8.7 1.3.9.5.2 1 .4 1.4.4.3 0 .5 0 .8 0V.8c-.5.1-1 .2-1.4.5C16.6 1.6 16 2 15.4 2.3zM15.7 35.9c-.9.3-1.5.6-2 1.1-.2.2-.4.5-.7.9-.1.2-.2.3-.3.5-.1.2-.2.4-.4.6-.3-.9-.1-1.9.6-2.7.4-.4.8-.6 1.3-.7C14.8 35.6 15.3 35.7 15.7 35.9zM15.1 26.9c-.9-.2-1.7-.4-2.4-.5.1.5.1.9.1 1.4 0 .6-.1 1.1-.3 1.7-.2.5-.5 1-.9 1.4-.4.4-.9.7-1.3.9.4-.3.9-.6 1.1-1.1.3-.4.5-.9.6-1.4.1-.5.1-1 0-1.5-.1-.5-.2-1-.3-1.4-.8.1-1.6.4-2.5.9.2-.5.6-1 1.1-1.4.5-.4 1.1-.5 1.7-.5.6 0 1.2.1 1.7.4C14.3 26.1 14.7 26.5 15.1 26.9z" fill="#888bf4" class="color000 svgShape"></path><path d="M37.5,25.7c-6.5-0.3-12,4.7-12.3,11.2c-0.3,6.5,4.7,12,11.2,12.3c6.5,0.3,12-4.7,12.3-11.2C49,31.5,44,26,37.5,25.7z M39.5,41.7c-0.1,0.2-0.3,0.2-0.6,0.2c-0.3,0-0.6-0.2-0.7-0.5l-0.7-1.7h-3.7l-0.7,1.7c-0.1,0.2-0.2,0.3-0.3,0.4c-0.3,0.2-0.8,0.2-1-0.1c-0.1-0.2-0.2-0.3-0.2-0.6c0-0.1,0-0.2,0.1-0.3l3.1-7.2c0.1-0.2,0.2-0.3,0.3-0.5c0.2-0.1,0.4-0.2,0.6-0.2h0.1c0.2,0,0.4,0.1,0.6,0.2c0.1,0.1,0.3,0.3,0.3,0.4l3.1,7.2c0.1,0.1,0.1,0.2,0.1,0.3C39.8,41.4,39.7,41.5,39.5,41.7z M42.4,41.1c0,0.2-0.1,0.4-0.2,0.6c-0.2,0.1-0.3,0.2-0.6,0.2c-0.2,0-0.4-0.1-0.6-0.2c-0.2-0.2-0.2-0.3-0.2-0.6v-7.4c0-0.2,0.1-0.4,0.2-0.6c0.3-0.3,0.8-0.3,1.1,0c0.2,0.2,0.2,0.3,0.2,0.6V41.1z" fill="#888bf4" class="color000 svgShape"></path><polygon points="34.4 38.2 36.9 38.2 35.6 35.2" fill="#888bf4" class="color000 svgShape"></polygon></svg></g></svg>