<?xml version="1.0" encoding="iso-8859-1"?>
<!-- Generator: Adobe Illustrator 19.0.0, SVG Export Plug-In . SVG Version: 6.00 Build 0)  -->
<svg version="1.1" id="Capa_1" xmlns="http://www.w3.org/2000/svg" xmlns:xlink="http://www.w3.org/1999/xlink" x="0px" y="0px"
	 viewBox="0 0 496 496" style="enable-background:new 0 0 496 496;" xml:space="preserve">
<g>
	<g>
		<g>
			<path d="M216,384c0,17.648,14.352,32,32,32s32-14.352,32-32s-14.352-32-32-32S216,366.352,216,384z M264,384
				c0,8.824-7.176,16-16,16c-8.824,0-16-7.176-16-16c0-8.824,7.176-16,16-16C256.824,368,264,375.176,264,384z"/>
			<rect x="312" y="120" width="16" height="40"/>
			<polygon points="416,171.312 416,64 400,64 400,164.688 378.344,186.344 389.656,197.656 			"/>
			<polygon points="480,219.312 480,128 464,128 464,212.688 442.344,234.344 453.656,245.656 			"/>
			<path d="M320,104c13.232,0,24-10.768,24-24s-10.768-24-24-24s-24,10.768-24,24S306.768,104,320,104z M320,72c4.408,0,8,3.592,8,8
				s-3.592,8-8,8c-4.408,0-8-3.592-8-8S315.592,72,320,72z"/>
			<rect x="240" y="64" width="16" height="88"/>
			<path d="M248,48c13.232,0,24-10.768,24-24S261.232,0,248,0s-24,10.768-24,24S234.768,48,248,48z M248,16c4.408,0,8,3.592,8,8
				s-3.592,8-8,8c-4.408,0-8-3.592-8-8S243.592,16,248,16z"/>
			<path d="M408,48c13.232,0,24-10.768,24-24S421.232,0,408,0s-24,10.768-24,24S394.768,48,408,48z M408,16c4.408,0,8,3.592,8,8
				s-3.592,8-8,8c-4.408,0-8-3.592-8-8S403.592,16,408,16z"/>
			<path d="M472,112c13.232,0,24-10.768,24-24s-10.768-24-24-24s-24,10.768-24,24S458.768,112,472,112z M472,80c4.408,0,8,3.592,8,8
				s-3.592,8-8,8c-4.408,0-8-3.592-8-8S467.592,80,472,80z"/>
			<rect x="168" y="120" width="16" height="48"/>
			<polygon points="80,64 80,171.312 106.344,197.656 117.656,186.344 96,164.688 96,64 			"/>
			<polygon points="16,128 16,219.312 58.344,261.656 69.656,250.344 32,212.688 32,128 			"/>
			<path d="M176,104c13.232,0,24-10.768,24-24s-10.768-24-24-24s-24,10.768-24,24S162.768,104,176,104z M176,72c4.408,0,8,3.592,8,8
				s-3.592,8-8,8s-8-3.592-8-8S171.592,72,176,72z"/>
			<path d="M88,48c13.232,0,24-10.768,24-24S101.232,0,88,0S64,10.768,64,24S74.768,48,88,48z M88,16c4.408,0,8,3.592,8,8
				s-3.592,8-8,8s-8-3.592-8-8S83.592,16,88,16z"/>
			<path d="M24,112c13.232,0,24-10.768,24-24S37.232,64,24,64S0,74.768,0,88S10.768,112,24,112z M24,80c4.408,0,8,3.592,8,8
				s-3.592,8-8,8s-8-3.592-8-8S19.592,80,24,80z"/>
			<path d="M334.536,342.624l-14.432,6.912c1.216,2.544,2.312,5.16,3.256,7.84l1.432,4.064l19.208,4.8v35.504l-19.208,4.8
				l-1.432,4.064c-0.944,2.688-2.032,5.296-3.256,7.84l-1.856,3.88l10.184,16.984l-25.104,25.104l-16.984-10.184l-3.88,1.856
				c-2.544,1.216-5.16,2.312-7.84,3.256l-4.064,1.432L265.752,480h-35.504l-4.8-19.208l-4.064-1.432
				c-2.688-0.944-5.296-2.032-7.84-3.256l-3.88-1.856l-16.984,10.184l-29.52-29.52l-11.312,11.312l38.352,38.352l20.424-12.248
				c0.456,0.192,0.912,0.384,1.368,0.568l5.76,23.104h60.496l5.776-23.096c0.456-0.184,0.912-0.376,1.368-0.568l20.424,12.248
				l42.768-42.768l-12.248-20.424c0.192-0.456,0.384-0.912,0.568-1.368L360,414.248v-60.496l-23.096-5.776
				C336.168,346.176,335.376,344.384,334.536,342.624z"/>
			<path d="M136,353.752v60.496l23.096,5.776c0.728,1.808,1.52,3.592,2.368,5.352l14.432-6.912c-1.216-2.544-2.312-5.16-3.256-7.84
				l-1.432-4.064L152,401.752v-35.504l19.208-4.8l1.432-4.064c0.944-2.688,2.032-5.296,3.256-7.84l1.856-3.88l-10.184-16.984
				l25.104-25.104l16.984,10.184l3.88-1.856c2.544-1.216,5.16-2.312,7.84-3.256l4.064-1.432l4.8-19.208h35.504l4.8,19.208
				l4.064,1.432c2.688,0.944,5.296,2.032,7.84,3.256l3.88,1.856l16.984-10.184l29.52,29.52l11.312-11.312l-38.352-38.352
				l-20.424,12.248c-0.456-0.192-0.912-0.384-1.368-0.568L278.248,272h-60.496l-5.776,23.096c-0.456,0.184-0.912,0.376-1.368,0.568
				l-20.424-12.248l-42.768,42.768l12.248,20.424c-0.192,0.456-0.384,0.912-0.568,1.368L136,353.752z"/>
			<path d="M463.952,304.632C463.96,304.424,464,304.208,464,304c0-34.768-27.88-63.088-62.448-63.92
				c-6.416-11.096-17.12-19.368-29.848-22.576C362.392,192.912,338.576,176,312,176c-9.88,0-19.616,2.32-28.472,6.736
				C271.016,173.192,255.768,168,240,168c-18.448,0-36.088,7.128-49.4,19.688c-7.112-2.36-14.704-3.688-22.6-3.688
				c-35.552,0-65.712,26.08-71.088,60.968c-14.664,6.6-26.008,19.336-30.632,35.32C29.248,283.224,0,314.232,0,352
				c0,39.696,32.304,72,72,72h48v-16H72c-30.88,0-56-25.12-56-56s25.12-56,56-56c17.096,0,33.032,7.664,43.728,21.016l12.496-10
				c-11.416-14.256-27.496-23.36-45.2-26.08C89.016,266.12,103.376,256,120,256c14.232,0,27.504,7.664,34.648,19.992l13.84-8.016
				C158.496,250.72,139.92,240,120,240c-1.936,0-3.84,0.12-5.728,0.312C121.112,216.824,142.816,200,168,200c30.88,0,56,25.12,56,56
				h16c0-25.568-13.44-48.008-33.576-60.784C216.04,188.008,227.8,184,240,184c13.744,0,26.992,5.088,37.312,14.336l4.456,3.992
				l5.088-3.144c7.6-4.696,16.296-7.184,25.144-7.184c17.432,0,33.264,9.72,41.664,24.464C330.184,219.584,312,239.688,312,264h16
				c0-17.648,14.352-32,32-32s32,14.352,32,32s-14.352,32-32,32v16c26.472,0,48-21.528,48-48c0-2.512-0.256-4.96-0.624-7.376
				c21.016,3.264,37.544,20.168,40.208,41.376c-5-1.256-10.2-2-15.584-2c-22.648,0-43.152,11.592-54.856,31.016l13.704,8.256
				C399.632,320.696,415.008,312,432,312c26.472,0,48,21.528,48,48s-21.528,48-48,48h-56v16h56c35.288,0,64-28.712,64-64
				C496,336.352,483.08,315.712,463.952,304.632z"/>
			<rect x="424" y="360" width="16" height="16"/>
			<path d="M240,320v0.552c-31.52,3.96-56,30.872-56,63.448c0,35.288,28.712,64,64,64c32.576,0,59.488-24.48,63.448-56H312v-16
				h-0.552c-3.624-28.896-26.552-51.816-55.448-55.448V320H240z M296,384c0,26.472-21.528,48-48,48s-48-21.528-48-48
				s21.528-48,48-48S296,357.528,296,384z"/>
			<rect x="64" y="368" width="16" height="16"/>
			<rect x="184" y="232" width="16" height="16"/>
			<rect x="280" y="224" width="16" height="16"/>
		</g>
	</g>
</g>
<g>
</g>
<g>
</g>
<g>
</g>
<g>
</g>
<g>
</g>
<g>
</g>
<g>
</g>
<g>
</g>
<g>
</g>
<g>
</g>
<g>
</g>
<g>
</g>
<g>
</g>
<g>
</g>
<g>
</g>
</svg>
