<?xml version="1.0" encoding="utf-8"?>
<!-- Generator: Adobe Illustrator 19.0.0, SVG Export Plug-In . SVG Version: 6.00 Build 0)  -->
<svg version="1.1" id="Layer_1" xmlns="http://www.w3.org/2000/svg" xmlns:xlink="http://www.w3.org/1999/xlink" x="0px" y="0px"
	 viewBox="0 0 500 500" style="enable-background:new 0 0 500 500;" xml:space="preserve">
<style type="text/css">
	.st0{fill:#1F0F10;}
	.st1{fill:#381413;}
	.st2{fill:url(#XMLID_98_);}
	.st3{fill:url(#XMLID_99_);}
	.st4{fill:url(#XMLID_100_);}
	.st5{fill:#561210;}
	.st6{fill:url(#XMLID_101_);}
	.st7{fill:url(#XMLID_102_);}
	.st8{fill:url(#XMLID_103_);}
	.st9{fill:url(#XMLID_104_);}
	.st10{fill:none;}
	.st11{fill:#A6A8AB;}
	.st12{fill:#231F20;}
</style>
<g id="XMLID_1_">
	<g id="XMLID_2_">
		<polygon id="XMLID_44_" class="st0" points="70.9,266.9 71.1,266.6 71.4,266.4 72.6,278.4 71.8,278.4 		"/>
		<polygon id="XMLID_43_" class="st1" points="124.2,245.9 124,245.5 123.6,245.7 127.8,278.4 129.5,278.4 		"/>
		<linearGradient id="XMLID_98_" gradientUnits="userSpaceOnUse" x1="120.3734" y1="294.6779" x2="127.8499" y2="279.5176">
			<stop  offset="0" style="stop-color:#9A1D21"/>
			<stop  offset="0.1837" style="stop-color:#AF2424"/>
			<stop  offset="0.4083" style="stop-color:#C32B27"/>
			<stop  offset="0.5614" style="stop-color:#CA2D28"/>
		</linearGradient>
		<polygon id="XMLID_42_" class="st2" points="115.5,278.4 118,292.2 130.5,290.8 141.3,278.4 		"/>
		<linearGradient id="XMLID_99_" gradientUnits="userSpaceOnUse" x1="135.0222" y1="278.3884" x2="135.0222" y2="290.7626">
			<stop  offset="0" style="stop-color:#A41E22"/>
			<stop  offset="1" style="stop-color:#A41E23"/>
		</linearGradient>
		<polygon id="XMLID_41_" class="st3" points="141.3,278.4 128.7,278.4 130.5,290.8 		"/>
		<linearGradient id="XMLID_100_" gradientUnits="userSpaceOnUse" x1="75.863" y1="278.171" x2="75.863" y2="292.1885">
			<stop  offset="7.389160e-002" style="stop-color:#B32626"/>
			<stop  offset="0.3635" style="stop-color:#AF2525"/>
			<stop  offset="0.6751" style="stop-color:#A22022"/>
			<stop  offset="0.996" style="stop-color:#8C191C"/>
			<stop  offset="1" style="stop-color:#8C191C"/>
		</linearGradient>
		<polygon id="XMLID_40_" class="st4" points="65,278.2 73.3,290.6 83.4,292.2 86.7,278.4 72.3,278.4 		"/>
		<polygon id="XMLID_39_" class="st5" points="72.3,278.4 65,278.2 73.3,290.7 		"/>
		<polygon id="XMLID_38_" class="st0" points="72.3,278.4 71.1,266.6 65,278.2 		"/>
		<linearGradient id="XMLID_101_" gradientUnits="userSpaceOnUse" x1="97.5665" y1="252.8257" x2="97.5665" y2="213.9054">
			<stop  offset="0" style="stop-color:#7E1419"/>
			<stop  offset="0.2057" style="stop-color:#971C1F"/>
			<stop  offset="0.4392" style="stop-color:#AD2323"/>
			<stop  offset="0.666" style="stop-color:#BA2726"/>
			<stop  offset="0.8768" style="stop-color:#BE2827"/>
			<stop  offset="1" style="stop-color:#AB1F24"/>
		</linearGradient>
		<polygon id="XMLID_37_" class="st6" points="124,245.5 103.1,206.2 71.1,266.6 		"/>
		<linearGradient id="XMLID_102_" gradientUnits="userSpaceOnUse" x1="71.1369" y1="261.9667" x2="128.7301" y2="261.9667">
			<stop  offset="0" style="stop-color:#4B1614"/>
			<stop  offset="0.1479" style="stop-color:#491514"/>
			<stop  offset="1" style="stop-color:#421312"/>
		</linearGradient>
		<polygon id="XMLID_36_" class="st7" points="71.1,266.6 124,245.5 128.7,278.4 72.3,278.4 		"/>
		<polygon id="XMLID_35_" class="st1" points="124,245.5 128.7,278.4 141.3,278.4 		"/>
		<linearGradient id="XMLID_103_" gradientUnits="userSpaceOnUse" x1="100.9044" y1="206.21" x2="100.9044" y2="258.7592">
			<stop  offset="0" style="stop-color:#DE462F"/>
			<stop  offset="0.4139" style="stop-color:#DA422E"/>
			<stop  offset="0.8586" style="stop-color:#CD352A"/>
			<stop  offset="1" style="stop-color:#C72F28"/>
		</linearGradient>
		<polygon id="XMLID_34_" class="st8" points="90.8,258.8 111,250.8 103.1,206.2 		"/>
		<linearGradient id="XMLID_104_" gradientUnits="userSpaceOnUse" x1="101.1125" y1="278.402" x2="101.1125" y2="250.7867">
			<stop  offset="0" style="stop-color:#771315"/>
			<stop  offset="0.5212" style="stop-color:#85171A"/>
			<stop  offset="1" style="stop-color:#8C191C"/>
		</linearGradient>
		<polygon id="XMLID_33_" class="st9" points="111,250.8 115.5,278.4 86.7,278.4 90.8,258.8 		"/>
		<polygon id="XMLID_32_" class="st10" points="141.4,278.3 103.1,206.2 65,278.2 73.3,290.6 83.4,292.2 86.7,278.4 86.7,278.4 
			115.5,278.4 118,292.2 130.5,290.8 141.4,278.3 141.4,278.3 		"/>
	</g>
	<rect id="XMLID_31_" x="164.6" y="208.1" class="st11" width="1.8" height="85.3"/>
	<g id="XMLID_3_">
		<path id="XMLID_4_" class="st12" d="M207.4,207.5h3.7l13.3,33.5H221l-3.6-9h-16.9l-3.6,9h-3.2L207.4,207.5z M209.1,210.6
			l-7.3,18.5h14.5L209.1,210.6z"/>
		<path id="XMLID_5_" class="st12" d="M253.2,229.2c0,2.5-0.4,4.5-1.2,6.1c-0.8,1.6-1.8,2.9-3,3.8c-1.2,0.9-2.5,1.5-4,1.9
			c-1.4,0.4-2.7,0.5-4,0.5c-1.2,0-2.5-0.2-4-0.5c-1.4-0.4-2.7-1-4-1.9c-1.2-0.9-2.2-2.2-3-3.8c-0.8-1.6-1.2-3.6-1.2-6.1v-21.8h3.3
			v21.8c0,1.4,0.2,2.6,0.6,3.8c0.4,1.2,0.9,2.1,1.7,3c0.8,0.8,1.7,1.5,2.8,1.9c1.1,0.5,2.4,0.7,3.8,0.7s2.7-0.2,3.8-0.7
			c1.1-0.5,2-1.1,2.8-1.9c0.8-0.8,1.3-1.8,1.7-3c0.4-1.2,0.6-2.4,0.6-3.8v-21.8h3.3V229.2z"/>
		<path id="XMLID_6_" class="st12" d="M267.4,210.3h-9.9v-2.9h23.1v2.9h-9.9v30.6h-3.3V210.3z"/>
		<path id="XMLID_7_" class="st12" d="M284.5,217.7c0.6-2.1,1.5-3.9,2.7-5.5c1.2-1.6,2.7-2.9,4.6-3.8c1.9-1,4-1.4,6.6-1.4
			c2.5,0,4.7,0.5,6.6,1.4c1.9,1,3.4,2.2,4.6,3.8c1.2,1.6,2.1,3.4,2.7,5.5c0.6,2.1,0.9,4.3,0.8,6.5c0,2.6-0.4,4.9-1,7
			c-0.6,2.1-1.6,3.9-2.8,5.5c-1.2,1.5-2.8,2.7-4.6,3.5c-1.8,0.8-4,1.3-6.4,1.3s-4.5-0.4-6.4-1.3c-1.8-0.8-3.4-2-4.6-3.5
			c-1.2-1.5-2.2-3.3-2.8-5.5c-0.6-2.1-1-4.5-1-7C283.6,221.9,283.9,219.7,284.5,217.7z M293.2,211c-1.4,0.8-2.6,1.9-3.5,3.3
			c-0.9,1.4-1.6,2.9-2.1,4.7c-0.4,1.7-0.7,3.5-0.7,5.2c0,1.8,0.2,3.5,0.7,5.3c0.4,1.7,1.1,3.3,2.1,4.6c0.9,1.4,2.1,2.5,3.5,3.3
			c1.4,0.8,3.1,1.2,5.1,1.2c2,0,3.6-0.4,5.1-1.2c1.4-0.8,2.6-1.9,3.6-3.3c0.9-1.4,1.6-2.9,2.1-4.6c0.4-1.7,0.7-3.5,0.7-5.3
			c0-1.8-0.2-3.5-0.7-5.2c-0.4-1.7-1.1-3.3-2.1-4.7c-0.9-1.4-2.1-2.5-3.6-3.3c-1.4-0.8-3.1-1.2-5.1-1.2
			C296.4,209.8,294.7,210.2,293.2,211z"/>
		<path id="XMLID_8_" class="st12" d="M319.5,207.5h8.3c3,0,5.6,0.4,7.7,1.2c2.1,0.8,3.8,2,5.2,3.5c1.3,1.5,2.3,3.3,2.9,5.3
			c0.6,2,0.9,4.3,0.9,6.7c0,3-0.5,5.6-1.4,7.7c-1,2.1-2.3,3.9-4,5.2c-1.7,1.3-3.7,2.3-6.1,2.9c-2.3,0.6-4.9,0.9-7.7,0.9h-5.9V207.5z
			 M322.8,238h2.7c2.4,0,4.5-0.3,6.5-0.8c1.9-0.5,3.6-1.3,4.9-2.4c1.4-1.1,2.4-2.6,3.2-4.4c0.8-1.8,1.1-4,1.1-6.5
			c0-2.6-0.4-4.7-1.1-6.5c-0.7-1.7-1.7-3.1-2.9-4.2c-1.2-1.1-2.7-1.8-4.3-2.3c-1.7-0.5-3.4-0.7-5.3-0.7h-4.8V238z"/>
		<path id="XMLID_9_" class="st12" d="M351.8,207.5h16.4v2.9h-13.1v11.9h12.4v2.9h-12.4V238h13.7v2.9h-17V207.5z"/>
		<path id="XMLID_10_" class="st12" d="M374.8,236.7c1,0.6,2.1,1.1,3.3,1.5c1.2,0.3,2.6,0.5,4.1,0.5c1,0,2-0.1,2.9-0.4
			c0.9-0.3,1.7-0.7,2.4-1.2c0.7-0.6,1.2-1.3,1.6-2.1c0.4-0.9,0.6-1.9,0.6-3.1c0-1.1-0.4-2-1.1-2.9c-0.8-0.8-1.7-1.6-2.9-2.3
			c-1.2-0.7-2.4-1.4-3.7-2.1c-1.3-0.7-2.5-1.4-3.7-2.3c-1.2-0.8-2.1-1.8-2.9-2.8c-0.8-1.1-1.1-2.3-1.1-3.8c0-1.3,0.3-2.5,0.8-3.6
			c0.5-1.1,1.3-2,2.3-2.8c1-0.8,2.1-1.4,3.4-1.8c1.3-0.4,2.7-0.6,4.1-0.6c0.8,0,1.8,0.1,3,0.2c1.2,0.1,2.4,0.4,3.5,0.9l-0.5,3
			c-0.7-0.4-1.7-0.7-2.8-0.9c-1.1-0.2-2.2-0.3-3.3-0.3c-0.9,0-1.7,0.1-2.6,0.3c-0.9,0.2-1.6,0.5-2.3,1c-0.7,0.4-1.2,1-1.7,1.8
			c-0.4,0.7-0.6,1.6-0.6,2.7c0,1.1,0.4,2.1,1.1,2.9c0.8,0.8,1.7,1.5,2.9,2.2c1.2,0.7,2.4,1.4,3.7,2c1.3,0.7,2.5,1.4,3.7,2.3
			c1.2,0.9,2.1,1.9,2.9,3c0.8,1.1,1.1,2.5,1.1,4.1c0,1.7-0.3,3.1-1,4.3c-0.7,1.2-1.5,2.2-2.6,2.9c-1.1,0.8-2.2,1.3-3.5,1.7
			c-1.3,0.4-2.6,0.5-3.9,0.5c-1.6,0-3.1-0.1-4.3-0.4c-1.3-0.3-2.3-0.6-3.2-1L374.8,236.7z"/>
		<path id="XMLID_11_" class="st12" d="M400.2,207.5h3.3v15l15.1-15h4.3l-16.2,15.8l17.6,17.7h-4.6l-16.2-16.7v16.7h-3.3V207.5z"/>
	</g>
	<g id="XMLID_12_">
		<path id="XMLID_13_" class="st12" d="M208.1,259.3h5.1l14.3,33.9h-5.3l-3.4-8.5h-16.5l-3.4,8.5h-5.1L208.1,259.3z M210.4,263.9
			l-6.7,16.8h13.4L210.4,263.9z"/>
		<path id="XMLID_14_" class="st12" d="M258.5,279.2c0,4.8-1.1,8.4-3.4,10.9c-2.3,2.5-5.5,3.7-9.7,3.7c-4.2,0-7.4-1.2-9.7-3.7
			c-2.3-2.5-3.4-6.1-3.4-10.9v-19.8h4.8v19.2c0,1.6,0.1,3.1,0.4,4.4c0.3,1.3,0.7,2.5,1.4,3.5c0.6,1,1.5,1.7,2.6,2.3
			c1.1,0.5,2.4,0.8,3.9,0.8c1.5,0,2.9-0.3,3.9-0.8c1.1-0.5,1.9-1.3,2.6-2.3c0.6-1,1.1-2.1,1.4-3.5c0.3-1.3,0.4-2.8,0.4-4.4v-19.2
			h4.8V279.2z"/>
		<path id="XMLID_15_" class="st12" d="M273.9,263.6h-10.5v-4.3h25.8v4.3h-10.5v29.6h-4.8V263.6z"/>
		<path id="XMLID_45_" class="st12" d="M293.4,269.3c0.7-2.1,1.8-4,3.2-5.5c1.4-1.6,3.1-2.8,5.1-3.7c2-0.9,4.3-1.3,6.9-1.3
			c2.5,0,4.8,0.4,6.8,1.3c2,0.9,3.7,2.1,5.1,3.7c1.4,1.6,2.5,3.4,3.2,5.5c0.7,2.1,1.1,4.5,1.1,7c0,2.6-0.4,4.9-1.1,7.1
			c-0.7,2.1-1.8,4-3.2,5.5c-1.4,1.6-3.1,2.8-5.1,3.6c-2,0.9-4.3,1.3-6.9,1.3c-2.6,0-4.9-0.4-6.9-1.3c-2-0.9-3.7-2.1-5.1-3.6
			c-1.4-1.6-2.4-3.4-3.2-5.5c-0.7-2.1-1.1-4.5-1.1-7.1C292.3,273.8,292.7,271.4,293.4,269.3z M298.1,281.2c0.4,1.6,1.1,3,2,4.2
			c0.9,1.2,2.1,2.2,3.5,3c1.4,0.7,3.1,1.1,5,1.1s3.6-0.4,5-1.1c1.4-0.7,2.6-1.7,3.5-3c0.9-1.2,1.6-2.7,2-4.2
			c0.4-1.6,0.7-3.2,0.7-4.9c0-1.7-0.2-3.4-0.7-5c-0.5-1.6-1.2-3-2.1-4.2c-0.9-1.2-2.1-2.2-3.5-2.9c-1.4-0.7-3-1.1-4.9-1.1
			c-1.9,0-3.5,0.4-4.9,1.1c-1.4,0.7-2.5,1.7-3.5,2.9c-0.9,1.2-1.6,2.6-2.1,4.2c-0.5,1.6-0.7,3.3-0.7,5
			C297.4,278,297.7,279.6,298.1,281.2z"/>
		<path id="XMLID_48_" class="st12" d="M355,264.9c-2.1-1.3-4.4-1.9-7-1.9c-1.9,0-3.7,0.3-5.3,1c-1.6,0.7-3,1.6-4.1,2.8
			c-1.1,1.2-2,2.6-2.6,4.2c-0.6,1.6-0.9,3.4-0.9,5.3c0,2,0.3,3.8,1,5.4c0.7,1.6,1.6,3,2.7,4.2c1.2,1.2,2.5,2.1,4.1,2.7
			c1.5,0.6,3.2,0.9,4.9,0.9c0.6,0,1.3,0,1.9-0.1c0.7-0.1,1.3-0.2,2-0.3c0.7-0.1,1.3-0.3,1.9-0.5c0.6-0.2,1.1-0.4,1.5-0.7l0.3,4.7
			c-1.3,0.6-2.6,0.9-4.1,1c-1.4,0.1-2.6,0.2-3.6,0.2c-2.7,0-5.1-0.4-7.3-1.2c-2.2-0.8-4.1-2-5.6-3.5c-1.5-1.5-2.7-3.4-3.6-5.6
			c-0.9-2.2-1.3-4.6-1.3-7.3c0-2.6,0.4-5,1.3-7.1c0.9-2.1,2.1-4,3.7-5.5c1.6-1.5,3.5-2.7,5.7-3.5c2.2-0.8,4.6-1.2,7.1-1.2
			c1.3,0,2.6,0.1,3.9,0.3c1.3,0.2,2.5,0.6,3.7,1.1L355,264.9z"/>
		<path id="XMLID_50_" class="st12" d="M371.9,259.3h5.1l14.3,33.9h-5.3l-3.4-8.5H366l-3.4,8.5h-5.1L371.9,259.3z M374.2,263.9
			l-6.7,16.8H381L374.2,263.9z"/>
		<path id="XMLID_53_" class="st12" d="M395.8,259.3h10c2.5,0,4.9,0.4,7,1.1c2.2,0.8,4.1,1.9,5.7,3.3c1.6,1.4,2.9,3.2,3.8,5.2
			c0.9,2.1,1.4,4.4,1.4,7c0,2.8-0.4,5.3-1.3,7.5c-0.8,2.2-2,3.9-3.6,5.4c-1.5,1.4-3.4,2.5-5.7,3.3c-2.2,0.7-4.7,1.1-7.5,1.1h-10
			V259.3z M400.6,288.9h5.1c4.2,0,7.3-1,9.6-3.1c2.2-2.1,3.3-5.3,3.3-9.7c0-2-0.3-3.7-0.9-5.3c-0.6-1.6-1.5-2.9-2.6-4
			c-1.1-1.1-2.4-1.9-3.9-2.5c-1.5-0.6-3.1-0.8-4.9-0.8h-5.7V288.9z"/>
	</g>
	<g id="XMLID_56_">
		<g id="XMLID_57_">
			<path id="XMLID_59_" class="st12" d="M431.9,213l-0.9-2.1h-1.3v2.1h-0.6v-4.8h1.8c0.2,0,0.4,0,0.6,0.1c0.2,0,0.4,0.1,0.5,0.2
				c0.2,0.1,0.3,0.3,0.4,0.5c0.1,0.2,0.1,0.4,0.1,0.6c0,0.3-0.1,0.5-0.2,0.8c-0.2,0.2-0.4,0.4-0.7,0.5l0.9,2.2H431.9z M430.8,210.4
				c0.2,0,0.3,0,0.4,0c0.1,0,0.3-0.1,0.4-0.2c0.1-0.1,0.1-0.2,0.2-0.3c0-0.1,0.1-0.2,0.1-0.3c0-0.1,0-0.3-0.1-0.4
				c-0.1-0.1-0.1-0.2-0.3-0.3c-0.1-0.1-0.2-0.1-0.3-0.1c-0.1,0-0.2,0-0.3,0h-1.2v1.7H430.8z"/>
		</g>
		<path id="XMLID_65_" class="st12" d="M430.7,215.1c-2.4,0-4.3-1.9-4.3-4.3c0-2.4,1.9-4.3,4.3-4.3c2.4,0,4.3,1.9,4.3,4.3
			C435,213.2,433.1,215.1,430.7,215.1z M430.7,207.2c-2,0-3.6,1.6-3.6,3.6c0,2,1.6,3.6,3.6,3.6c2,0,3.6-1.6,3.6-3.6
			C434.3,208.8,432.7,207.2,430.7,207.2z"/>
	</g>
	<g id="XMLID_68_">
		<g id="XMLID_69_">
			<path id="XMLID_70_" class="st12" d="M431,264.8l-0.9-2.1h-1.3v2.1h-0.6V260h1.8c0.2,0,0.4,0,0.6,0.1c0.2,0,0.4,0.1,0.5,0.2
				c0.2,0.1,0.3,0.3,0.4,0.5c0.1,0.2,0.1,0.4,0.1,0.6c0,0.3-0.1,0.5-0.2,0.8c-0.2,0.2-0.4,0.4-0.7,0.5l0.9,2.2H431z M429.9,262.2
				c0.2,0,0.3,0,0.4,0c0.1,0,0.3-0.1,0.4-0.2c0.1-0.1,0.1-0.2,0.2-0.3c0-0.1,0.1-0.2,0.1-0.3c0-0.1,0-0.3-0.1-0.4
				c-0.1-0.1-0.1-0.2-0.3-0.3c-0.1-0.1-0.2-0.1-0.3-0.1c-0.1,0-0.2,0-0.3,0h-1.2v1.7H429.9z"/>
		</g>
		<path id="XMLID_73_" class="st12" d="M429.8,266.9c-2.4,0-4.3-1.9-4.3-4.3c0-2.4,1.9-4.3,4.3-4.3c2.4,0,4.3,1.9,4.3,4.3
			C434.1,265,432.2,266.9,429.8,266.9z M429.8,259c-2,0-3.6,1.6-3.6,3.6c0,2,1.6,3.6,3.6,3.6c2,0,3.6-1.6,3.6-3.6
			C433.4,260.6,431.8,259,429.8,259z"/>
	</g>
</g>
</svg>
