<svg id="SvgjsSvg1001" width="288" height="288" xmlns="http://www.w3.org/2000/svg" version="1.1" xmlns:xlink="http://www.w3.org/1999/xlink" xmlns:svgjs="http://svgjs.com/svgjs"><defs id="SvgjsDefs1002"></defs><g id="SvgjsG1008" transform="matrix(0.9167,0,0,0.9167,11.995294058227557,11.995200158882142)"><svg xmlns="http://www.w3.org/2000/svg" enable-background="new 0 0 128 128" viewBox="0 0 128 128" width="288" height="288"><path d="M124.997,109.857H10.9c-0.554,0-1.003-0.448-1.003-1V11.376c0-0.552,0.449-1,1.003-1s1.003,0.448,1.003,1v96.481
							h113.095c0.554,0,1.003,0.448,1.003,1S125.551,109.857,124.997,109.857z" fill="#888bf4" class="color000 svgShape"></path><path d="M3.994 18.766c-.26 0-.52-.101-.717-.301-.387-.395-.38-1.028.016-1.414l6.938-6.766c.39-.38 1.013-.38 1.402 0l6.874 6.704c.396.386.403 1.019.016 1.414s-1.021.403-1.418.016l-6.173-6.02-6.237 6.083C4.499 18.671 4.247 18.766 3.994 18.766zM10.9 100.367H3.003c-.554 0-1.003-.448-1.003-1s.449-1 1.003-1H10.9c.554 0 1.003.448 1.003 1C11.902 99.919 11.453 100.367 10.9 100.367zM10.9 87.837H3.003c-.554 0-1.003-.448-1.003-1s.449-1 1.003-1H10.9c.554 0 1.003.448 1.003 1S11.453 87.837 10.9 87.837zM10.9 75.307H3.003c-.554 0-1.003-.448-1.003-1s.449-1 1.003-1H10.9c.554 0 1.003.448 1.003 1S11.453 75.307 10.9 75.307zM10.9 62.778H3.003c-.554 0-1.003-.448-1.003-1s.449-1 1.003-1H10.9c.554 0 1.003.448 1.003 1C11.902 62.33 11.453 62.778 10.9 62.778zM10.9 50.248H3.003c-.554 0-1.003-.448-1.003-1s.449-1 1.003-1H10.9c.554 0 1.003.448 1.003 1C11.902 49.8 11.453 50.248 10.9 50.248zM10.9 37.718H3.003c-.554 0-1.003-.448-1.003-1s.449-1 1.003-1H10.9c.554 0 1.003.448 1.003 1S11.453 37.718 10.9 37.718zM19.543 118c-.554 0-1.003-.448-1.003-1v-7.701c0-.552.449-1 1.003-1s1.003.448 1.003 1V117C20.546 117.552 20.097 118 19.543 118zM32.392 118c-.554 0-1.003-.448-1.003-1v-7.701c0-.552.449-1 1.003-1s1.003.448 1.003 1V117C33.395 117.552 32.946 118 32.392 118zM45.241 118c-.554 0-1.003-.448-1.003-1v-7.701c0-.552.449-1 1.003-1s1.003.448 1.003 1V117C46.244 117.552 45.795 118 45.241 118zM58.09 118c-.554 0-1.003-.448-1.003-1v-7.701c0-.552.449-1 1.003-1 .554 0 1.003.448 1.003 1V117C59.092 117.552 58.643 118 58.09 118zM70.938 118c-.554 0-1.003-.448-1.003-1v-7.701c0-.552.449-1 1.003-1s1.003.448 1.003 1V117C71.941 117.552 71.492 118 70.938 118zM83.787 118c-.554 0-1.003-.448-1.003-1v-7.701c0-.552.449-1 1.003-1s1.003.448 1.003 1V117C84.79 117.552 84.341 118 83.787 118zM96.636 118c-.554 0-1.003-.448-1.003-1v-7.701c0-.552.449-1 1.003-1s1.003.448 1.003 1V117C97.639 117.552 97.19 118 96.636 118z" fill="#888bf4" class="color000 svgShape"></path><ellipse cx="79.724" cy="45.017" rx="2.221" ry="2.204" fill="#888bf4" class="color000 svgShape"></ellipse><ellipse cx="59.511" cy="45.017" rx="2.221" ry="2.204" fill="#888bf4" class="color000 svgShape"></ellipse><ellipse cx="68.223" cy="61.844" rx="2.221" ry="2.204" fill="#888bf4" class="color000 svgShape"></ellipse><ellipse cx="47.513" cy="58.083" rx="2.221" ry="2.204" fill="#888bf4" class="color000 svgShape"></ellipse><path d="M106.694 87.188C106.694 87.187 106.694 87.187 106.694 87.188c-.738-1.544-1.818-2.934-3.125-4.02L86.153 68.686c-.968 1.465-2.086 2.858-3.361 4.151-.332.337-.673.663-1.019.98-.066.06-.135.116-.201.176-.289.26-.581.515-.88.761-.054.044-.109.086-.163.129-.321.26-.645.514-.975.758-.032.024-.066.046-.098.07-.358.262-.721.515-1.09.758-.004.003-.009.006-.013.009l14.373 17.708c1.074 1.323 2.446 2.416 3.968 3.162 2.864 1.403 6.301.814 8.551-1.464C107.505 93.595 108.088 90.101 106.694 87.188zM76.224 75.302c.882-.524 1.73-1.105 2.543-1.735.081-.063.162-.128.243-.192.308-.245.609-.498.906-.758.095-.083.191-.165.286-.25.366-.33.725-.668 1.072-1.019.497-.503.951-1.033 1.397-1.567.177-.215.358-.426.53-.649.215-.275.409-.561.611-.843.392-.553.772-1.121 1.13-1.717 5.839-9.747 4.635-22.643-3.668-31.057-4.717-4.78-10.986-7.413-17.654-7.413s-12.938 2.633-17.654 7.413c-9.748 9.88-9.748 25.954 0 35.833 4.717 4.78 10.986 7.413 17.654 7.413 4.5 0 8.817-1.203 12.599-3.452C76.22 75.306 76.221 75.303 76.224 75.302zM68.223 66.173c-2.399 0-4.351-1.942-4.351-4.329 0-1.061.401-2.021 1.04-2.775l-4.004-9.973c-.441.15-.905.249-1.396.249-.954 0-1.829-.316-2.547-.836l-6.207 6.716c.681.764 1.108 1.758 1.108 2.857 0 2.387-1.952 4.329-4.351 4.329-2.399 0-4.351-1.942-4.351-4.329 0-2.387 1.952-4.329 4.351-4.329.514 0 1 .105 1.458.268l6.619-7.161c-.268-.562-.43-1.182-.43-1.844 0-2.387 1.952-4.329 4.351-4.329 2.399 0 4.351 1.942 4.351 4.329 0 1.115-.438 2.123-1.137 2.892l3.973 9.895c.476-.179.986-.289 1.525-.289.975 0 1.866.332 2.592.873l7.088-9.452c-1.49-.688-2.531-2.181-2.531-3.919 0-2.387 1.952-4.329 4.351-4.329 2.399 0 4.351 1.942 4.351 4.329 0 2.19-1.65 3.986-3.774 4.271l-8.105 10.807c.24.536.379 1.126.379 1.749C72.574 64.231 70.622 66.173 68.223 66.173zM118.081 116.592c-.26 0-.519-.101-.715-.301-.386-.395-.379-1.028.016-1.414l6.188-6.051-6.125-5.988c-.395-.386-.402-1.019-.016-1.414.386-.395 1.02-.402 1.414-.016l6.855 6.703c.192.188.301.446.301.715s-.108.527-.301.715l-6.919 6.766C118.585 116.497 118.333 116.592 118.081 116.592z" fill="#888bf4" class="color000 svgShape"></path></svg></g></svg>