<svg id="SvgjsSvg1001" width="288" height="288" xmlns="http://www.w3.org/2000/svg" version="1.1" xmlns:xlink="http://www.w3.org/1999/xlink" xmlns:svgjs="http://svgjs.com/svgjs"><defs id="SvgjsDefs1002"></defs><g id="SvgjsG1008" transform="matrix(0.9167,0,0,0.9167,11.976457785987861,11.996370961380023)"><svg xmlns="http://www.w3.org/2000/svg" enable-background="new 0 0 1024 1024" viewBox="0 0 1024 1024" width="288" height="288"><path d="M899.6,303.3H679.5c-6.5,0-12.4,2.3-17,6.1c-4.6,3.8-7.9,9-9.1,15c-0.4,1.8-0.6,3.7-0.6,5.7v462.4
		c0,14.8,12,26.8,26.8,26.8h220.2c14.8,0,26.8-12,26.8-26.8V330.1C926.5,315.3,914.4,303.3,899.6,303.3z M789.6,724.9
		c-21.1,0-38.3-17.2-38.3-38.3c0-21.1,17.2-38.3,38.3-38.3s38.3,17.2,38.3,38.3C827.8,707.8,810.7,724.9,789.6,724.9z M853,529H727
		v-40h126V529z M853,436H727v-40h126V436z" fill="#888bf4" class="color000 svgShape"></path><path d="M780.8,204.8H142.6c-25.8,0-46.8,21-46.8,46.8v379.9c0,25.8,21,46.8,46.8,46.8H386V778H281v40h336.7
		c-3.3-7.9-5.1-16.5-5.1-25.5V778H538v-99.6h74.7V330.1c0-0.3,0-0.6,0-0.9c0.5-36.4,30.3-65.9,66.8-65.9h148.1v-11.7
		C827.6,225.8,806.6,204.8,780.8,204.8z M215.8,292.5l33,22.7l-37.4,54.4l-33-22.7L215.8,292.5z M228.9,488l-33-22.7l118.9-172.9
		l33,22.7L228.9,488z" fill="#888bf4" class="color000 svgShape"></path></svg></g></svg>