<?xml version="1.0" encoding="iso-8859-1"?>
<!-- Generator: Adobe Illustrator 19.0.0, SVG Export Plug-In . SVG Version: 6.00 Build 0)  -->
<svg version="1.1" id="Capa_1" xmlns="http://www.w3.org/2000/svg" xmlns:xlink="http://www.w3.org/1999/xlink" x="0px" y="0px"
	 viewBox="0 0 512.026 512.026" style="enable-background:new 0 0 512.026 512.026;" xml:space="preserve">
<g>
	<g>
		<g>
			<path d="M512,55.48c0.611-13.462-9.755-24.895-23.212-25.6H91.479c-13.457,0.705-23.824,12.138-23.212,25.6v110.933H25.6
				c-14.132,0.015-25.585,11.468-25.6,25.6v264.533c0.015,14.132,11.468,25.585,25.6,25.6h153.6
				c14.132-0.015,25.585-11.468,25.6-25.6v-25.6h196.267c4.713,0,8.533-3.82,8.533-8.533s-3.82-8.533-8.533-8.533H358.4v-17.067
				h130.388c13.457-0.705,23.824-12.138,23.212-25.6V55.48z M187.733,456.546c-0.006,4.71-3.823,8.527-8.533,8.533H25.6
				c-4.71-0.006-8.527-3.823-8.533-8.533v-230.4h170.667V456.546z M187.733,209.08H17.067v-17.067
				c0.006-4.71,3.823-8.527,8.533-8.533h153.6c4.71,0.006,8.527,3.823,8.533,8.533V209.08z M198.142,174.946
				c-4.812-5.41-11.701-8.513-18.942-8.533H128V132.28h281.6v145.067H230.4v-25.6c0-4.713-3.82-8.533-8.533-8.533H204.8v-17.067
				h17.067c4.713,0,8.533-3.82,8.533-8.533V183.48c0-4.713-3.82-8.533-8.533-8.533H198.142z M128,115.213V81.08h324.267v34.133H128z
				 M452.267,132.28v145.067h-25.6V132.28H452.267z M213.333,260.28v17.067H204.8V260.28H213.333z M204.8,209.08v-17.067h8.533
				v17.067H204.8z M221.867,413.88H204.8v-17.067h17.067V413.88z M341.333,413.88h-102.4v-17.067h102.4V413.88z M494.933,371.213
				c0,4.546-2.871,8.533-6.146,8.533H204.8v-51.2h290.133V371.213z M494.933,311.48H204.8v-17.067h256
				c4.713,0,8.533-3.821,8.533-8.533V81.08c-0.009-9.422-7.645-17.057-17.067-17.067H128c-9.422,0.009-17.057,7.645-17.067,17.067
				v85.333h-25.6V55.48c0-4.546,2.871-8.533,6.146-8.533h397.308c3.275,0,6.146,3.987,6.146,8.533V311.48z"/>
			<path d="M307.2,149.346c0-4.713-3.82-8.533-8.533-8.533H153.6c-4.713,0-8.533,3.82-8.533,8.533s3.821,8.533,8.533,8.533h145.067
				C303.38,157.88,307.2,154.059,307.2,149.346z"/>
			<path d="M247.467,183.48c0,4.713,3.82,8.533,8.533,8.533h76.8c4.713,0,8.533-3.82,8.533-8.533s-3.821-8.533-8.533-8.533H256
				C251.287,174.946,247.467,178.767,247.467,183.48z"/>
			<path d="M247.467,217.613c0,4.713,3.82,8.533,8.533,8.533h119.467c4.713,0,8.533-3.82,8.533-8.533s-3.82-8.533-8.533-8.533H256
				C251.287,209.08,247.467,212.9,247.467,217.613z"/>
			<path d="M332.8,243.213H256c-4.713,0-8.533,3.82-8.533,8.533s3.82,8.533,8.533,8.533h76.8c4.713,0,8.533-3.82,8.533-8.533
				S337.513,243.213,332.8,243.213z"/>
			<path d="M98.133,456.546c11.782,0,21.333-9.551,21.333-21.333c-0.014-11.776-9.557-21.32-21.333-21.333
				c-11.782,0-21.333,9.551-21.333,21.333S86.351,456.546,98.133,456.546z M98.133,430.946c2.356,0,4.267,1.91,4.267,4.267
				c-0.002,2.356-1.911,4.265-4.267,4.267c-2.356,0-4.267-1.91-4.267-4.267C93.867,432.856,95.777,430.946,98.133,430.946z"/>
			<path d="M42.667,260.28h17.067c4.713,0,8.533-3.82,8.533-8.533s-3.82-8.533-8.533-8.533H42.667c-4.713,0-8.533,3.82-8.533,8.533
				S37.954,260.28,42.667,260.28z"/>
			<path d="M93.867,260.28h68.267c4.713,0,8.533-3.82,8.533-8.533s-3.82-8.533-8.533-8.533H93.867c-4.713,0-8.533,3.82-8.533,8.533
				S89.154,260.28,93.867,260.28z"/>
			<path d="M42.667,294.413h17.067c4.713,0,8.533-3.821,8.533-8.533c0-4.713-3.82-8.533-8.533-8.533H42.667
				c-4.713,0-8.533,3.821-8.533,8.533C34.133,290.592,37.954,294.413,42.667,294.413z"/>
			<path d="M93.867,294.413h68.267c4.713,0,8.533-3.821,8.533-8.533c0-4.713-3.82-8.533-8.533-8.533H93.867
				c-4.713,0-8.533,3.821-8.533,8.533C85.333,290.592,89.154,294.413,93.867,294.413z"/>
			<path d="M42.667,328.546h17.067c4.713,0,8.533-3.82,8.533-8.533s-3.82-8.533-8.533-8.533H42.667c-4.713,0-8.533,3.82-8.533,8.533
				S37.954,328.546,42.667,328.546z"/>
			<path d="M93.867,328.546h68.267c4.713,0,8.533-3.82,8.533-8.533s-3.82-8.533-8.533-8.533H93.867c-4.713,0-8.533,3.82-8.533,8.533
				S89.154,328.546,93.867,328.546z"/>
			<path d="M42.667,362.68h17.067c4.713,0,8.533-3.82,8.533-8.533s-3.82-8.533-8.533-8.533H42.667c-4.713,0-8.533,3.821-8.533,8.533
				S37.954,362.68,42.667,362.68z"/>
			<path d="M93.867,362.68h68.267c4.713,0,8.533-3.82,8.533-8.533s-3.82-8.533-8.533-8.533H93.867c-4.713,0-8.533,3.821-8.533,8.533
				S89.154,362.68,93.867,362.68z"/>
			<path d="M42.667,396.813h17.067c4.713,0,8.533-3.82,8.533-8.533s-3.82-8.533-8.533-8.533H42.667c-4.713,0-8.533,3.82-8.533,8.533
				S37.954,396.813,42.667,396.813z"/>
			<path d="M93.867,396.813h68.267c4.713,0,8.533-3.82,8.533-8.533s-3.82-8.533-8.533-8.533H93.867c-4.713,0-8.533,3.82-8.533,8.533
				S89.154,396.813,93.867,396.813z"/>
		</g>
	</g>
</g>
<g>
</g>
<g>
</g>
<g>
</g>
<g>
</g>
<g>
</g>
<g>
</g>
<g>
</g>
<g>
</g>
<g>
</g>
<g>
</g>
<g>
</g>
<g>
</g>
<g>
</g>
<g>
</g>
<g>
</g>
</svg>
