<svg height="512" viewBox="0 0 60 60" width="512" xmlns="http://www.w3.org/2000/svg"><g id="Page-1" fill="none" fill-rule="evenodd"><g id="060---Search" fill="rgb(0,0,0)" fill-rule="nonzero"><path id="Shape" d="m0 36c0 1.1045695.8954305 2 2 2h22c.5522847 0 1-.4477153 1-1s-.4477153-1-1-1h-22v-23c0-.5522847-.44771525-1-1-1s-1 .4477153-1 1z"/><path id="Shape" d="m0 8c0 .55228475.44771525 1 1 1s1-.44771525 1-1v-6h50v13c0 .5522847.4477153 1 1 1s1-.4477153 1-1v-13c0-1.1045695-.8954305-2-2-2h-50c-1.1045695 0-2 .8954305-2 2z"/><circle id="Oval" cx="6" cy="6" r="1"/><circle id="Oval" cx="10" cy="6" r="1"/><circle id="Oval" cx="14" cy="6" r="1"/><path id="Shape" d="m5.293 24.707c.39049985.3903819 1.02350015.3903819 1.414 0l6.293-6.293 3.293 3.293c.3904999.3903819 1.0235001.3903819 1.414 0l7.293-7.293 3.293 3.293c.3904999.3903819 1.0235001.3903819 1.414 0l8.293-8.293 3.293 3.293c.3904999.3903819 1.0235001.3903819 1.414 0l6-6c.2599566-.25107447.3642126-.62287789.2726972-.97250732-.0915155-.34962944-.3645604-.6226744-.7141899-.71418984-.3496294-.09151544-.7214328.01274058-.9725073.27269716l-5.293 5.293-3.293-3.293c-.3904999-.39038194-1.0235001-.39038194-1.414 0l-8.293 8.293-3.293-3.293c-.3904999-.3903819-1.0235001-.3903819-1.414 0l-7.293 7.293-3.293-3.293c-.3904999-.3903819-1.0235001-.3903819-1.414 0l-7 7c-.39038194.3904999-.39038194 1.0235001 0 1.414z"/><path id="Shape" d="m43 15c-5.9621169-.0055637-11.490554 3.1155294-14.5659552 8.2232468s-3.2473521 11.4539975-.4530448 16.7207532l-3.738 3.739c-.3912937.3904653-.3919653 1.0242063-.0015 1.4155s1.0242063.3919653 1.4155.0015l3.4-3.4c1.1535812 1.6533196 2.5899523 3.0900292 4.243 4.244l-11.177 11.179c-1.1736218 1.1631205-3.0646389 1.1653499-4.241.005-1.1737227-1.172588-1.1764072-3.0741027-.006-4.25l4.25-4.24c.379565-.3918367.3750451-1.0155809-.0101585-1.4018758-.3852037-.3862949-1.0089326-.3925793-1.4018415-.0141242l-4.256 4.246c-1.9469015 1.9564807-1.9437708 5.1193773.007 7.072 1.9572624 1.9422672 5.1147376 1.9422672 7.072 0l11.519-11.521c6.250121 3.3143009 13.899504 2.4114601 19.2062707-2.2668762 5.3067666-4.6783363 7.1615395-12.154164 4.6570123-18.7705033s-8.8447843-10.9900474-15.919283-10.9816205zm0 32c-8.2842712 0-15-6.7157288-15-15s6.7157288-15 15-15 15 6.7157288 15 15c-.0093685 8.2803876-6.7196124 14.9906315-15 15z"/><path id="Shape" d="m39.729 20.457c-5.1570505 1.4722501-8.7170709 6.1799274-8.729 11.543 0 .5522847.4477153.9999999 1 .9999999s1-.4477152 1-.9999999c.009271-4.4679524 2.97475-8.390248 7.271-9.617.3440468-.096819.6103068-.3698302.6984825-.7161929s-.0151289-.7134562-.271-.963-.6254357-.3436261-.9694825-.2468071z"/></g></g></svg>