<?xml version="1.0" encoding="UTF-8"?>
<!DOCTYPE svg PUBLIC "-//W3C//DTD SVG 1.0//EN" "http://www.w3.org/TR/2001/REC-SVG-20010904/DTD/svg10.dtd">
<!-- Creator: CorelDRAW 2017 -->
<svg xmlns="http://www.w3.org/2000/svg" xml:space="preserve" width="356px" height="200px" version="1.0" shape-rendering="geometricPrecision" text-rendering="geometricPrecision" image-rendering="optimizeQuality" fill-rule="evenodd" clip-rule="evenodd"
viewBox="0 0 44376 24961"
 xmlns:xlink="http://www.w3.org/1999/xlink">
 <g id="__x0023_Layer_x0020_1">
  <metadata id="CorelCorpID_0Corel-Layer"/>
  <g id="_2098638400384">
   <path fill="#E6E7E8" d="M0 0l44376 0 0 24961 -44376 0 0 -24961z"/>
   <path fill="#373435" fill-opacity="0.031373" d="M2595 21873c85,128 139,252 194,388 39,80 60,229 248,229 54,0 133,-18 202,-57 79,-41 139,-103 170,-198l75 -252 182 -89 12 12c-24,95 -30,186 -30,257 0,211 181,291 326,291 85,0 161,-41 161,-118 0,-101 -43,-270 -97,-422 84,-85 169,-170 266,-239l15 8c42,180 67,357 67,475 0,116 -52,245 -94,329 -88,165 -242,296 -430,296 -142,0 -299,-72 -408,-203l-6 0c-103,126 -260,242 -514,242l-79 0c-12,167 -48,285 -103,390 -151,296 -598,504 -1019,504 -587,0 -880,-339 -880,-789 0,-278 91,-537 230,-720l115 46c-88,168 -145,327 -145,481 0,422 341,622 738,622 366,0 819,-234 901,-504 -30,-295 -142,-434 -312,-704 52,-90 118,-180 200,-275l15 0zm6757 -1589c124,77 245,170 363,275 -66,93 -148,178 -251,252 -118,-95 -236,-177 -357,-264 82,-93 164,-183 245,-263zm64 1155c-200,0 -363,131 -363,228 0,209 399,273 877,270 -60,-244 -269,-498 -514,-498zm-448 1115c260,0 487,-8 659,-51 194,-49 357,-147 357,-213 0,-19 0,-39 -6,-57 -108,10 -233,10 -341,10 -351,0 -620,-80 -726,-278 -28,-53 -46,-115 -46,-185 0,-190 82,-377 227,-506 121,-105 254,-172 390,-172 245,0 442,198 578,509 76,169 127,365 127,612 0,164 -45,303 -148,406 -191,185 -542,254 -1080,254l-245 0 0 0 -63 0c-133,0 -230,-23 -306,-82l-12 0c3,31 6,62 6,90 0,121 -39,275 -121,398 -239,358 -499,512 -723,512 -227,0 -505,-87 -756,-200l46 -88c81,34 193,57 347,57 406,0 938,-391 1004,-772 -15,-30 -42,-72 -81,-115 -118,-142 -194,-260 -263,-383 60,-119 115,-214 166,-299l21 -2c173,352 330,555 681,555l54 0 0 0 254 0zm-1755 373c31,-162 34,-344 34,-514l0 -252c0,-471 -61,-1154 -109,-1599 84,-93 202,-201 296,-273l27 8c64,560 79,1211 79,1810 0,157 -6,311 -21,424 -9,141 -91,250 -266,414l-40 -18zm-1806 -743c9,221 118,396 496,396 236,0 436,-62 656,-167 40,-18 61,-41 61,-62 0,-139 -106,-321 -284,-488 -173,-157 -403,-296 -617,-389 -73,-30 -97,-64 -97,-95 0,-64 85,-198 154,-293l24 -2c245,128 520,319 723,532 185,195 300,393 300,609 0,160 -49,311 -128,450 -269,136 -556,239 -840,239 -345,0 -581,-162 -581,-542 0,-42 0,-106 15,-188l118 0zm-624 -627l215 347c78,128 151,267 151,488l0 283c0,229 -145,473 -381,715 -185,164 -348,234 -499,234 -224,0 -481,-70 -777,-198l33 -88c94,26 203,47 336,47 426,-3 862,-314 1061,-695 24,-43 33,-84 33,-113 0,-43 -24,-92 -42,-136 -109,-206 -230,-393 -363,-565 70,-111 139,-216 215,-322l18 3z"/>
   <path fill="#373435" fill-opacity="0.078431" d="M29616 7177l-3944 3486 -4303 -2 3157 -2790 -61 12 -86 11 -106 8 -124 7 -139 4 -149 3 -157 2 -162 0 -162 -1 -160 -3 -155 -3 -146 -4 -134 -5 -119 -5 -100 -5 -77 -6 -394 -1721 -24 -106 -23 -108 -22 -108 -22 -111 -23 -113 -23 -115 -24 -118 -26 -120 -26 -123 -25 -115 -33 -104 -46 -87 -66 -65 -94 -38 -127 -7 -169 30 -2648 2341 273 -1342 20 -83 20 -73 19 -67 18 -64 18 -67 17 -74 15 -84 14 -99 26 -188 34 -187 41 -184 50 -182 58 -177 67 -173 77 -167 87 -161 96 -155 108 -146 119 -138 131 -128 -5381 4755 -24 -1 -124 -9 -105 -12 -82 -15 -56 -18 -42 -21 -24 -7 -11 1 -2 0 0 -8 -3 -23 -10 -45 -23 -75 -14 -44 -20 -69 -26 -86 -29 -93 -32 -93 -33 -84 -33 -67 -31 -40 -85 -24 -93 -18 -100 -12 -107 -7 -113 -4 -116 0 -120 2 -121 4 -123 4 -123 5 -121 4 -119 3 -116 1 -112 -3 -106 -6 -100 -10 3 -2074 -12105 10698 0 2072 0 18 0 71 0 1539 0 385 0 384 0 280 0 401 0 1196 0 262 0 225 0 1100 0 662 0 364 0 334 826 0 249 0 1001 0 5 0 608 0 478 0 537 0 910 0 167 0 23 0 383 0 1651 0 866 0 180 0 1608 0 440 0 187 0 7 0 366 0 364 0 335 0 320 0 235 0 641 0 70 0 241 0 3 0 351 0 42 0 11 0 405 0 435 0 159 0 16 0 160 0 39 0 4 0 88 0 201 0 281 0 187 0 70 0 457 0 2 0 841 0 284 0 5 0 216 0 97 0 179 0 63 0 606 0 470 0 125 0 227 0 3 0 426 0 65 0 68 0 3 0 4 0 23 0 33 0 101 0 317 0 32 0 92 0 205 0 764 0 433 0 548 0 598 0 29 0 585 0 60 0 780 0 302 0 31 0 413 0 205 0 575 0 1003 0 781 0 997 0 780 0 3001 -2651 -781 0 0 -1688 -1 -105 -4 -95 -6 -86 -9 -75 -11 -66 -14 -56 -17 -47 -19 -36 -28 -40 -33 -34 -37 -28 -40 -24 -43 -18 -48 -13 -50 -8 -55 -3 -41 2 -40 5 -39 7 -39 11 -39 14 -38 17 -37 21 -36 23 -35 27 -1019 900 0 -223 0 -103 -2 -93 -3 -84 -3 -36 697 -616 49 -57 50 -54 52 -49 52 -46 -901 796 -1 -13 -6 -64 -7 -56 -9 -45 -9 -36 -11 -30 -13 -29 -14 -26 -15 -24 -17 -23 -18 -20 -20 -19 -21 -16 -23 -14 -25 -13 -27 -10 -28 -9 -31 -6 -33 -5 -34 -3 -37 -1 -44 2 -44 4 -42 8 -41 11 -41 13 -38 17 -38 19 -37 23 -35 26 -1015 897 0 -517 718 -635 99 -109 103 -95 -920 814 0 -1013 -1526 1348 0 -1057 781 -690 -206 0 4253 -3759 -73 62 -94 71 -110 77 -123 82 -132 85 -138 87 -141 86 -139 84 -135 80 -127 75 -114 67 -100 58 -81 46 -59 35 -41 24 -36 22 -34 20 -32 19 -32 18 -32 18 -36 19 -39 19 -71 36 -47 25 -28 18 -19 15 -94 83 -25 19 -1724 1029 -177 69 -163 17 -139 -31 -109 -78 -72 -123 -25 -166 28 -206 89 -244 15 -33 14 -34 14 -35 12 -36 12 -37 11 -40 11 -41 9 -44 -1 -276 -2 -3 7460 -6593 -3525 2120 -125 110 -67 54 -122 84 -139 74 -150 48 -154 10 -150 -45 -130 -157 -51 -163 9 -169 48 -175 67 -182 65 -188 42 -195 -1 -202 -2317 -1 2336 -2064 -17 -214 -27 -159 -34 -118 -37 -89 -38 -73 -36 -69 -31 -78 -21 -100 -11 -134 10 -123 29 -107 51 -90 72 -68z"/>
   <g>
    <path fill="#2957A4" d="M14609 11352c-25,347 328,1779 472,2117 250,590 654,1037 1261,1296 1042,445 2056,181 2773,-709 189,-235 318,-517 431,-825l436 -2113c82,-388 1210,-6103 1340,-6361 509,-133 512,177 586,509 72,326 121,618 187,899l394 1721c349,32 1781,58 2037,-15 26,-50 23,-22 32,-117 18,-187 -468,-2073 -532,-2460 -128,-776 -375,-1766 -1014,-2140 -282,-165 -420,-412 -1044,-533 -493,-95 -943,-26 -1339,134 -1004,407 -1420,1385 -1541,2390 -35,289 -88,372 -141,611l-1066 5242c-55,283 -254,1717 -467,1847 -559,339 -526,-1085 -733,-1501l-2072 8z"/>
    <path fill="#FF6200" d="M29706 8599l-8505 2 -405 2060 8891 3c79,549 -523,1019 -49,1431 389,205 890,-326 907,-335l3525 -2120c-51,-102 -206,-184 -293,-222l-2720 -1680c-128,-76 -229,-143 -360,-216 -203,-112 -540,-350 -730,-390 -406,-84 -555,197 -502,567 43,306 212,247 241,900z"/>
    <path fill="#2957A4" d="M25678 12715c-55,-223 -109,-497 -154,-709 -40,-185 -99,-498 -167,-661l-2080 13c-11,382 263,1298 361,1655 121,439 140,1061 402,1650 34,76 68,110 109,181 161,274 258,504 550,754 87,75 183,144 272,208 801,572 1591,243 1641,430l1 276c-25,121 -57,211 -98,300 -325,700 82,1015 568,762l1724 -1029c168,-124 54,-83 284,-196 111,-54 166,-91 282,-159 248,-146 1595,-908 1639,-1087l-3520 -2147c-80,-49 -11,-6 -89,-60 -519,-361 -1075,-331 -998,264 36,282 188,238 230,920 -750,2 -593,118 -957,-1365z"/>
    <path fill="#FF6200" d="M10305 8721l12 1914c412,82 6008,50 6961,7l398 -2040 -7220 -9c-109,0 -151,29 -151,128z"/>
    <path fill="#2957A4" d="M12102 7044c513,69 1348,-84 1775,61 79,65 192,500 218,576 83,246 -27,97 115,178 220,106 1721,65 2074,26 -155,-403 -182,-961 -385,-1379 -63,-128 -89,-173 -146,-292l-357 -509c-156,-174 -108,-97 -293,-200 -178,-99 -254,-472 -1234,-537 -464,-31 -1305,-36 -1764,2l-3 2074z"/>
   </g>
   <path fill="#4B4B4D" fill-rule="nonzero" d="M13856 22310l-1459 -4080 893 0 1036 3020 994 -3020 877 0 -1451 4080 -890 0zm4147 -935l780 131c-100,286 -258,504 -474,654 -216,149 -487,224 -811,224 -513,0 -894,-168 -1140,-504 -195,-270 -293,-610 -293,-1021 0,-490 129,-875 384,-1152 255,-278 579,-417 970,-417 439,0 786,145 1040,436 254,291 375,736 364,1336l-1954 0c5,232 68,412 189,541 119,129 269,194 448,194 122,0 225,-33 308,-100 83,-66 146,-173 189,-322zm45 -792c-6,-226 -64,-399 -175,-517 -111,-119 -246,-178 -405,-178 -170,0 -311,63 -422,187 -111,125 -165,295 -163,508l1165 0zm4103 1727l-780 0 0 -1507c0,-319 -17,-525 -51,-619 -34,-93 -88,-166 -164,-218 -76,-52 -167,-78 -273,-78 -137,0 -260,37 -368,111 -109,74 -183,173 -223,295 -41,122 -61,348 -61,679l0 1337 -780 0 0 -2957 723 0 0 434c259,-332 585,-497 979,-497 173,0 332,31 475,93 145,63 253,142 326,238 74,96 125,206 154,328 29,122 43,297 43,525l0 1836zm512 -832l786 -120c34,151 101,266 204,344 101,79 245,118 428,118 202,0 354,-37 457,-111 68,-53 102,-123 102,-210 0,-59 -19,-108 -56,-147 -39,-37 -126,-73 -261,-104 -631,-140 -1031,-267 -1200,-382 -235,-160 -352,-382 -352,-666 0,-258 102,-473 304,-648 203,-175 516,-262 940,-262 405,0 706,67 902,198 197,133 333,329 407,588l-735 137c-31,-116 -92,-205 -180,-267 -89,-61 -215,-92 -379,-92 -207,0 -356,29 -446,87 -60,40 -89,94 -89,158 0,56 26,104 78,143 71,52 315,125 733,220 418,95 709,211 875,348 164,139 246,334 246,582 0,271 -114,505 -340,699 -227,195 -562,293 -1006,293 -403,0 -722,-82 -957,-244 -235,-163 -389,-383 -461,-662zm3448 -2524l0 -724 781 0 0 724 -781 0zm0 3356l0 -2957 781 0 0 2957 -781 0zm1526 -2957l718 0 0 403c257,-310 564,-466 920,-466 189,0 353,39 492,117 140,78 254,196 342,353 130,-157 271,-275 421,-353 150,-78 310,-117 481,-117 217,0 400,44 551,132 150,88 262,218 336,388 54,126 81,330 81,612l0 1888 -781 0 0 -1688c0,-293 -26,-482 -81,-566 -72,-112 -184,-168 -334,-168 -109,0 -213,34 -309,100 -96,68 -167,165 -209,293 -43,130 -64,333 -64,611l0 1418 -781 0 0 -1618c0,-287 -14,-473 -41,-556 -28,-83 -71,-146 -129,-187 -58,-41 -138,-61 -238,-61 -120,0 -229,33 -325,97 -96,66 -165,159 -207,281 -41,123 -62,326 -62,609l0 1435 -781 0 0 -2957z"/>
  </g>
 </g>
</svg>
