<svg id="SvgjsSvg1001" width="288" height="288" xmlns="http://www.w3.org/2000/svg" version="1.1" xmlns:xlink="http://www.w3.org/1999/xlink" xmlns:svgjs="http://svgjs.com/svgjs"><defs id="SvgjsDefs1002"></defs><g id="SvgjsG1008" transform="matrix(0.9167,0,0,0.9167,12.182625000000002,11.995200000000011)"><svg xmlns="http://www.w3.org/2000/svg" viewBox="0 0 64 64" width="288" height="288"><g data-name="Address book-Book-Notebook-Agenda-Bookmark" fill="#ffffff" class="color000 svgShape"><path d="M59,18a1,1,0,0,0,1-1V11a1,1,0,0,0-1-1H54V7a5,5,0,0,0-5-5H9A1,1,0,0,0,8,3v9H5v2H8v8H5v2H8v8H5v2H8v8H5v2H8V61a1,1,0,0,0,1,1H49a5,5,0,0,0,5-5V38h5a1,1,0,0,0,1-1V31a1,1,0,0,0-1-1H54V28h5a1,1,0,0,0,1-1V21a1,1,0,0,0-1-1H54V18Zm-5-6h4v4H54ZM52,57a3.009,3.009,0,0,1-3,3H10V58H49a4.924,4.924,0,0,0,3-1.03Zm0-4a3.009,3.009,0,0,1-3,3H10V54H49a4.924,4.924,0,0,0,3-1.03Zm0-4a3.009,3.009,0,0,1-3,3H10V44h2.18a3,3,0,1,0,0-2H10V34h2.18a3,3,0,1,0,0-2H10V24h2.18a3,3,0,1,0,0-2H10V14h2.18a3,3,0,1,0,0-2H10V4H49a3.009,3.009,0,0,1,3,3ZM14,43a1,1,0,1,1,1,1A1,1,0,0,1,14,43Zm0-10a1,1,0,1,1,1,1A1,1,0,0,1,14,33Zm0-10a1,1,0,1,1,1,1A1,1,0,0,1,14,23Zm0-10a1,1,0,1,1,1,1A1,1,0,0,1,14,13ZM58,32v4H54V32Zm0-10v4H54V22Z" fill="#ffffff" class="color000 svgShape"></path><path d="M42 34H22a1 1 0 0 0-1 1V45a1 1 0 0 0 1 1H42a1 1 0 0 0 1-1V35A1 1 0 0 0 42 34zM41 44H23V36H41zM32 10A11 11 0 1 0 43 21 11.013 11.013 0 0 0 32 10zM28 29.05V27a3.989 3.989 0 0 1 2.088-3.509 3.846 3.846 0 0 0 3.824 0A3.989 3.989 0 0 1 36 27v2.05a8.9 8.9 0 0 1-8 0zM34 20a2 2 0 0 1-4 0V18a2 2 0 0 1 4 0zm4 7.689V27a5.966 5.966 0 0 0-2.6-4.926A3.95 3.95 0 0 0 36 20V18a4 4 0 0 0-8 0v2a3.95 3.95 0 0 0 .6 2.074A5.966 5.966 0 0 0 26 27v.689a9 9 0 1 1 12 0z" fill="#ffffff" class="color000 svgShape"></path></g></svg></g></svg>